<svg width="19" height="17" viewBox="0 0 19 17" fill="none" xmlns="http://www.w3.org/2000/svg">
<path d="M0.5 10.5V8.5H7.5V10.5H0.5ZM0.5 6.5V4.5H11.5V6.5H0.5ZM0.5 2.5V0.5H11.5V2.5H0.5ZM9.5 16.5V13.425L15.025 7.925C15.175 7.775 15.3417 7.66667 15.525 7.6C15.7083 7.53333 15.8917 7.5 16.075 7.5C16.275 7.5 16.4667 7.5375 16.65 7.6125C16.8333 7.6875 17 7.8 17.15 7.95L18.075 8.875C18.2083 9.025 18.3125 9.19167 18.3875 9.375C18.4625 9.55833 18.5 9.74167 18.5 9.925C18.5 10.1083 18.4667 10.2958 18.4 10.4875C18.3333 10.6792 18.225 10.85 18.075 11L12.575 16.5H9.5ZM16.075 10.9L17 9.925L16.075 9L15.125 9.95L16.075 10.9Z" fill="#341100" stroke="black" stroke-linejoin="bevel"/>
</svg>
