<svg width="24" height="24" viewBox="0 0 24 24" fill="none" xmlns="http://www.w3.org/2000/svg">
<path d="M1.60732 23.9667C1.14065 24.0778 0.735095 23.9611 0.39065 23.6167C0.046206 23.2722 -0.0704607 22.8667 0.0406504 22.4L1.37398 16.0333L7.97398 22.6333L1.60732 23.9667V23.9667M7.97398 22.6333L1.37398 16.0333L16.6406 0.766667C17.1518 0.255556 17.7851 0 18.5407 0C19.2962 0 19.9295 0.255556 20.4407 0.766667L23.2407 3.56667C23.7518 4.07778 24.0073 4.71111 24.0073 5.46667C24.0073 6.22222 23.7518 6.85556 23.2407 7.36667L7.97398 22.6333V22.6333M18.5407 2.63333L4.74065 16.4333L7.57398 19.2667L21.374 5.46667V5.46667V5.46667L18.5407 2.63333V2.63333V2.63333V2.63333" fill="#9F9FA8"/>
</svg>
