<svg width="59" height="56" viewBox="0 0 59 56" fill="none" xmlns="http://www.w3.org/2000/svg">
<path d="M20.2667 56L15.2 47.4667L5.6 45.3333L6.53333 35.4667L0 28L6.53333 20.5333L5.6 10.6667L15.2 8.53333L20.2667 0L29.3333 3.86667L38.4 0L43.4667 8.53333L53.0667 10.6667L52.1333 20.5333L58.6667 28L52.1333 35.4667L53.0667 45.3333L43.4667 47.4667L38.4 56L29.3333 52.1333L20.2667 56V56M26.5333 37.4667L41.6 22.4L37.8667 18.5333L26.5333 29.8667L20.8 24.2667L17.0667 28L26.5333 37.4667V37.4667" fill="#E6E9F1"/>
</svg>
