<svg width="51" height="48" viewBox="0 0 51 48" fill="none" xmlns="http://www.w3.org/2000/svg">
<path d="M2.66667 48V36.6667L37.8 1.6C38.3333 1.06667 38.9333 0.666667 39.6 0.4C40.2667 0.133333 40.9333 0 41.6 0C42.3111 0 42.9889 0.133333 43.6333 0.4C44.2778 0.666667 44.8444 1.06667 45.3333 1.6L49.0667 5.33333C49.6 5.82222 50 6.38889 50.2667 7.03333C50.5333 7.67778 50.6667 8.35556 50.6667 9.06667C50.6667 9.73333 50.5333 10.4 50.2667 11.0667C50 11.7333 49.6 12.3333 49.0667 12.8667L14 48H2.66667V48M8 42.6667H11.7333L37.9333 16.5333L36.0667 14.6L34.1333 12.7333L8 38.9333V42.6667V42.6667M45.3333 9.13333V9.13333L41.5333 5.33333V5.33333L45.3333 9.13333V9.13333M36.0667 14.6L34.1333 12.7333V12.7333L37.9333 16.5333V16.5333L36.0667 14.6V14.6M29.3333 48C32.6222 48 35.6667 47.1778 38.4667 45.5333C41.2667 43.8889 42.6667 41.6 42.6667 38.6667C42.6667 37.0667 42.2444 35.6889 41.4 34.5333C40.5556 33.3778 39.4222 32.3778 38 31.5333L34.0667 35.4667C35.0889 35.9111 35.8889 36.4 36.4667 36.9333C37.0444 37.4667 37.3333 38.0444 37.3333 38.6667C37.3333 39.6889 36.5222 40.6111 34.9 41.4333C33.2778 42.2556 31.4222 42.6667 29.3333 42.6667C28.5778 42.6667 27.9444 42.9222 27.4333 43.4333C26.9222 43.9444 26.6667 44.5778 26.6667 45.3333C26.6667 46.0889 26.9222 46.7222 27.4333 47.2333C27.9444 47.7444 28.5778 48 29.3333 48V48M4.2 27.6L8.2 23.6C7.31111 23.2444 6.61111 22.8778 6.1 22.5C5.58889 22.1222 5.33333 21.7333 5.33333 21.3333C5.33333 20.8 5.73333 20.2667 6.53333 19.7333C7.33333 19.2 9.02222 18.3778 11.6 17.2667C15.5111 15.5778 18.1111 14.0444 19.4 12.6667C20.6889 11.2889 21.3333 9.73333 21.3333 8C21.3333 5.55556 20.3556 3.61111 18.4 2.16667C16.4444 0.722222 13.8667 0 10.6667 0C8.66667 0 6.87778 0.355556 5.3 1.06667C3.72222 1.77778 2.51111 2.64444 1.66667 3.66667C1.17778 4.24444 0.977778 4.88889 1.06667 5.6C1.15556 6.31111 1.48889 6.88889 2.06667 7.33333C2.64444 7.82222 3.28889 8.02222 4 7.93333C4.71111 7.84444 5.31111 7.55556 5.8 7.06667C6.42222 6.44444 7.11111 6 7.86667 5.73333C8.62222 5.46667 9.55556 5.33333 10.6667 5.33333C12.4889 5.33333 13.8333 5.6 14.7 6.13333C15.5667 6.66667 16 7.28889 16 8C16 8.62222 15.6111 9.18889 14.8333 9.7C14.0556 10.2111 12.2667 11.1111 9.46667 12.4C5.91111 13.9556 3.44444 15.3667 2.06667 16.6333C0.688889 17.9 0 19.4667 0 21.3333C0 22.7556 0.377778 23.9667 1.13333 24.9667C1.88889 25.9667 2.91111 26.8444 4.2 27.6V27.6" fill="#E6E9F1"/>
</svg>
