<svg width="14" height="12" viewBox="0 0 14 12" fill="none" xmlns="http://www.w3.org/2000/svg">
<path d="M6 12V10.6667H11.3333V5.93333C11.3333 4.63333 10.8806 3.53056 9.975 2.625C9.06944 1.71944 7.96667 1.26667 6.66667 1.26667C5.36667 1.26667 4.26389 1.71944 3.35833 2.625C2.45278 3.53056 2 4.63333 2 5.93333V10H1.33333C0.966667 10 0.652778 9.86944 0.391667 9.60833C0.130556 9.34722 0 9.03333 0 8.66667V7.33333C0 7.1 0.0583333 6.88056 0.175 6.675C0.291667 6.46944 0.455556 6.30556 0.666667 6.18333L0.716667 5.3C0.805556 4.54444 1.025 3.84444 1.375 3.2C1.725 2.55556 2.16389 1.99444 2.69167 1.51667C3.21944 1.03889 3.825 0.666667 4.50833 0.4C5.19167 0.133333 5.91111 0 6.66667 0C7.42222 0 8.13889 0.133333 8.81667 0.4C9.49444 0.666667 10.1 1.03611 10.6333 1.50833C11.1667 1.98056 11.6056 2.53889 11.95 3.18333C12.2944 3.82778 12.5167 4.52778 12.6167 5.28333L12.6667 6.15C12.8778 6.25 13.0417 6.4 13.1583 6.6C13.275 6.8 13.3333 7.01111 13.3333 7.23333V8.76667C13.3333 8.98889 13.275 9.2 13.1583 9.4C13.0417 9.6 12.8778 9.75 12.6667 9.85V10.6667C12.6667 11.0333 12.5361 11.3472 12.275 11.6083C12.0139 11.8694 11.7 12 11.3333 12H6ZM4.66667 7.33333C4.47778 7.33333 4.31944 7.26944 4.19167 7.14167C4.06389 7.01389 4 6.85556 4 6.66667C4 6.47778 4.06389 6.31944 4.19167 6.19167C4.31944 6.06389 4.47778 6 4.66667 6C4.85556 6 5.01389 6.06389 5.14167 6.19167C5.26944 6.31944 5.33333 6.47778 5.33333 6.66667C5.33333 6.85556 5.26944 7.01389 5.14167 7.14167C5.01389 7.26944 4.85556 7.33333 4.66667 7.33333ZM8.66667 7.33333C8.47778 7.33333 8.31944 7.26944 8.19167 7.14167C8.06389 7.01389 8 6.85556 8 6.66667C8 6.47778 8.06389 6.31944 8.19167 6.19167C8.31944 6.06389 8.47778 6 8.66667 6C8.85556 6 9.01389 6.06389 9.14167 6.19167C9.26944 6.31944 9.33333 6.47778 9.33333 6.66667C9.33333 6.85556 9.26944 7.01389 9.14167 7.14167C9.01389 7.26944 8.85556 7.33333 8.66667 7.33333ZM2.68333 6.3C2.60556 5.12222 2.96111 4.11111 3.75 3.26667C4.53889 2.42222 5.52222 2 6.7 2C7.68889 2 8.55833 2.31389 9.30833 2.94167C10.0583 3.56944 10.5111 4.37222 10.6667 5.35C9.65556 5.33889 8.725 5.06667 7.875 4.53333C7.025 4 6.37222 3.27778 5.91667 2.36667C5.73889 3.25556 5.36389 4.04722 4.79167 4.74167C4.21944 5.43611 3.51667 5.95556 2.68333 6.3Z" fill="#444651"/>
</svg>
