<svg width="48" height="48" viewBox="0 0 48 48" fill="none" xmlns="http://www.w3.org/2000/svg">
<rect width="48" height="48" rx="4" fill="#1E3A8A"/>
<path d="M23.9998 25.1667C22.8526 25.1667 21.8853 24.773 21.0978 23.9855C20.3103 23.198 19.9165 22.2306 19.9165 21.0834C19.9165 19.9362 20.3103 18.9688 21.0978 18.1813C21.8853 17.3938 22.8526 17 23.9998 17C25.1471 17 26.1144 17.3938 26.9019 18.1813C27.6894 18.9688 28.0832 19.9362 28.0832 21.0834C28.0832 22.2306 27.6894 23.198 26.9019 23.9855C26.1144 24.773 25.1471 25.1667 23.9998 25.1667ZM23.9998 22.8334C24.5054 22.8334 24.9234 22.6681 25.254 22.3375C25.5846 22.007 25.7498 21.5889 25.7498 21.0834C25.7498 20.5778 25.5846 20.1598 25.254 19.8292C24.9234 19.4987 24.5054 19.3334 23.9998 19.3334C23.4943 19.3334 23.0762 19.4987 22.7457 19.8292C22.4151 20.1598 22.2498 20.5778 22.2498 21.0834C22.2498 21.5889 22.4151 22.007 22.7457 22.3375C23.0762 22.6681 23.4943 22.8334 23.9998 22.8334ZM23.9998 35.6667C21.2971 34.9862 19.0658 33.4355 17.3061 31.0146C15.5464 28.5938 14.6665 25.9056 14.6665 22.95V15.8334L23.9998 12.3334L33.3332 15.8334V22.95C33.3332 25.9056 32.4533 28.5938 30.6936 31.0146C28.9339 33.4355 26.7026 34.9862 23.9998 35.6667ZM23.9998 14.8125L16.9998 17.4375V22.95C16.9998 24 17.1457 25.0209 17.4373 26.0125C17.729 27.0042 18.1276 27.9375 18.6332 28.8125C19.4498 28.4042 20.3054 28.0834 21.1998 27.85C22.0943 27.6167 23.0276 27.5 23.9998 27.5C24.9721 27.5 25.9054 27.6167 26.7998 27.85C27.6943 28.0834 28.5498 28.4042 29.3665 28.8125C29.8721 27.9375 30.2707 27.0042 30.5623 26.0125C30.854 25.0209 30.9998 24 30.9998 22.95V17.4375L23.9998 14.8125ZM23.9998 29.8334C23.2998 29.8334 22.6193 29.9112 21.9582 30.0667C21.2971 30.2223 20.6651 30.4362 20.0623 30.7084C20.6262 31.2917 21.2387 31.7973 21.8998 32.225C22.5609 32.6528 23.2609 32.9834 23.9998 33.2167C24.7387 32.9834 25.4387 32.6528 26.0998 32.225C26.7609 31.7973 27.3734 31.2917 27.9373 30.7084C27.3346 30.4362 26.7026 30.2223 26.0415 30.0667C25.3804 29.9112 24.6998 29.8334 23.9998 29.8334Z" fill="#90A8FF"/>
</svg>
